<svg width="24" height="24" viewBox="0 0 24 24" fill="none" xmlns="http://www.w3.org/2000/svg">
<path d="M7.5 8.25V6.75C7.5 5.55653 7.97411 4.41193 8.81802 3.56802C9.66193 2.72411 10.8065 2.25 12 2.25V2.25C13.1935 2.25 14.3381 2.72411 15.182 3.56802C16.0259 4.41193 16.5 5.55653 16.5 6.75V8.25M3.75 8.25C3.55109 8.25 3.36032 8.32902 3.21967 8.46967C3.07902 8.61032 3 8.80109 3 9V19.125C3 20.5425 4.2075 21.75 5.625 21.75H18.375C19.7925 21.75 21 20.6011 21 19.1836V9C21 8.80109 20.921 8.61032 20.7803 8.46967C20.6397 8.32902 20.4489 8.25 20.25 8.25H3.75Z" stroke="black" stroke-width="1.5" stroke-linecap="round" stroke-linejoin="round"/>
<path d="M7.5 10.5V11.25C7.5 12.4435 7.97411 13.5881 8.81802 14.432C9.66193 15.2759 10.8065 15.75 12 15.75C13.1935 15.75 14.3381 15.2759 15.182 14.432C16.0259 13.5881 16.5 12.4435 16.5 11.25V10.5" stroke="black" stroke-width="1.5" stroke-linecap="round" stroke-linejoin="round"/>
</svg>
