<svg width="24" height="24" viewBox="0 0 24 24" fill="none" xmlns="http://www.w3.org/2000/svg">
<path d="M20.1455 10.9692C20.7312 10.5411 20.4284 9.61371 19.7029 9.61371H14.8768C14.5469 9.61371 14.2557 9.39806 14.1594 9.08244L12.7174 4.35288C12.5014 3.64452 11.4986 3.64452 11.2826 4.35288L9.84056 9.08244C9.74432 9.39806 9.45312 9.61371 9.12316 9.61371H4.29709C3.57164 9.61371 3.26884 10.5411 3.85452 10.9692L7.80729 13.8583C8.07095 14.0511 8.1796 14.3922 8.07592 14.7019L6.42247 19.6411C6.18662 20.3457 7.00877 20.9275 7.59475 20.4708L11.5389 17.3965C11.81 17.1852 12.19 17.1852 12.4611 17.3965L16.4052 20.4708C16.9912 20.9275 17.8134 20.3457 17.5775 19.6411L15.9241 14.7019C15.8204 14.3922 15.9291 14.0511 16.1927 13.8583L20.1455 10.9692Z" fill="#111111" stroke="#111111" stroke-linejoin="round"/>
</svg>
